<svg xmlns="http://www.w3.org/2000/svg" xmlns:xlink="http://www.w3.org/1999/xlink" xmlns:inkscape="http://www.inkscape.org/namespaces/inkscape" version="1.1" width="1190.55" height="841.89" viewBox="0 0 1190.55 841.89">
<defs>
<clipPath id="clip_1">
<path transform="matrix(1,0,0,-1,0,841.89)" d="M0 841.89H1190.551V0H0Z"/>
</clipPath>
</defs>
<g inkscape:groupmode="layer" inkscape:label="Layer 1">
<g clip-path="url(#clip_1)">
<path transform="matrix(1,0,0,-1,662.9824,416.0578)" d="M0 0C-3.268-.228-6.535-.657-9.803-.652-42.255-.614-74.707-.401-107.16-.442-146.949-.493-176.472 17.978-196.264 51.576-229.224 107.523-261.484 163.895-293.275 220.522-304.458 240.44-320.662 249.098-342.525 249.196-347.369 249.217-352.223 249.095-357.05 249.396-359.116 249.524-362.034 249.937-362.981 251.318-365.204 254.558-366.472 258.46-368.126 262.095-364.961 262.798-361.798 264.104-358.63 264.115-316.006 264.252-273.381 264.074-230.758 264.341-223.356 264.387-218.947 262.021-215.172 255.364-181.948 196.752-148.527 138.25-114.7 79.989-109.651 71.294-102.905 63.276-95.694 56.24-82.37 43.242-66.43 35.423-47.192 37.152-38.948 37.893-33.57 35.09-28.275 28.211-21.862 19.88-13.152 13.324-5.345 6.101-3.627 4.511-1.524 3.341 .401 1.978 .267 1.318 .134 .659 0 0" fill="#030404"/>
<path transform="matrix(1,0,0,-1,548.6792,151.34491)" d="M0 0C21.303 0 42.609-.25 63.904 .14 71.039 .27 75.361-1.922 79.016-8.348 112.554-67.31 146.475-126.052 180.14-184.942 189.617-201.519 202.825-213.944 219.797-222.264 224.34-224.491 226.384-227.305 226.236-232.387 225.979-241.145 226.486-249.937 225.927-258.667 225.778-261.001 222.894-265.125 221.315-265.101 201.533-264.802 181.275-266.364 162.099-262.555 133.479-256.871 112.284-238.454 97.623-213.106 74.13-172.49 50.963-131.684 27.656-90.958 18.357-74.711 8.679-58.67-.153-42.169-9.967-23.835-25.657-16.403-45.364-15.569-50.924-15.333-56.528-15.793-62.054-15.292-64.7-15.053-68.062-13.999-69.577-12.09-71.648-9.481-72.269-5.708-73.511-2.433-70.553-1.79-67.6-.611-64.638-.589-43.093-.43-21.546-.503 0-.503Z" fill="#030404"/>
<path transform="matrix(1,0,0,-1,774.8174,274.70924)" d="M0 0C-2.465 3.693-4.026 5.769-5.314 8.002-19.287 32.232-33.628 56.261-47.024 80.81-56.862 98.837-72.205 106.262-91.558 107.403-97.354 107.744-103.19 107.368-108.986 107.708-111.255 107.841-114.424 108.356-115.503 109.891-117.899 113.302-119.233 117.467-121.002 121.324-117.606 122.066-114.213 123.446-110.816 123.456-36.95 123.663 36.916 123.757 110.782 123.685 114.298 123.681 117.813 121.955 121.327 121.031 119.306 117.003 117.775 112.582 115.043 109.122 113.793 107.539 110.196 107.541 107.626 107.356 98.952 106.733 90.174 106.968 81.598 105.736 66.574 103.579 55.369 95.651 47.794 82.043 34.425 58.03 20.523 34.317 6.795 10.509 5.014 7.42 2.928 4.507 0 0" fill="#030404"/>
<path transform="matrix(1,0,0,-1,181.9233,620.841)" d="M0 0-6.789-6.599C-11.404-1.622-16.598 .864-22.365 .864-27.238 .864-31.339-.831-34.672-4.228-38.01-7.624-39.676-11.812-39.676-16.788-39.676-20.254-38.938-23.331-37.461-26.021-35.984-28.709-33.896-30.82-31.196-32.352-28.496-33.886-25.496-34.651-22.192-34.651-19.378-34.651-16.805-34.116-14.471-33.042-12.143-31.97-9.581-30.02-6.789-27.187L-.211-34.188C-3.975-37.937-7.531-40.535-10.881-41.984-14.23-43.434-18.054-44.159-22.353-44.159-30.276-44.159-36.761-41.596-41.807-36.473-46.857-31.348-49.38-24.781-49.38-16.769-49.38-11.585-48.229-6.98-45.933-2.951-43.634 1.078-40.343 4.318-36.057 6.768-31.77 9.219-27.158 10.444-22.213 10.444-18.007 10.444-13.961 9.537-10.067 7.728-6.176 5.915-2.818 3.34 0 0" fill="#030404"/>
<path transform="matrix(1,0,0,-1,236.2529,632.02566)" d="M0 0H3.042C6.126 0 8.252 .413 9.417 1.24 10.578 2.066 11.16 3.438 11.16 5.354 11.16 6.486 10.873 7.474 10.295 8.313 9.721 9.153 8.949 9.756 7.982 10.121 7.017 10.488 5.24 10.672 2.662 10.672H0ZM-9.7 20.321H.578C6.21 20.321 10.219 19.809 12.607 18.783 14.995 17.758 16.915 16.056 18.371 13.676 19.822 11.297 20.552 8.48 20.552 5.229 20.552 1.813 19.746-1.044 18.142-3.34 16.535-5.637 14.117-7.375 10.885-8.555L22.957-31.667H12.354L.89-9.649H0V-31.667H-9.7Z" fill="#030404"/>
<path transform="matrix(1,0,0,-1,0,841.89)" d="M301.852 230.186H311.48399V178.198H301.852Z" fill="#030404"/>
<path transform="matrix(1,0,0,-1,404.7305,620.841)" d="M0 0-6.788-6.599C-11.404-1.622-16.598 .864-22.365 .864-27.238 .864-31.339-.831-34.673-4.228-38.01-7.624-39.676-11.812-39.676-16.788-39.676-20.254-38.938-23.331-37.461-26.021-35.984-28.709-33.896-30.82-31.196-32.352-28.496-33.886-25.496-34.651-22.192-34.651-19.378-34.651-16.804-34.116-14.472-33.042-12.143-31.97-9.582-30.02-6.788-27.187L-.21-34.188C-3.975-37.937-7.531-40.535-10.881-41.984-14.231-43.434-18.054-44.159-22.353-44.159-30.276-44.159-36.761-41.596-41.807-36.473-46.857-31.348-49.38-24.781-49.38-16.769-49.38-11.585-48.229-6.98-45.933-2.951-43.634 1.078-40.343 4.318-36.057 6.768-31.77 9.219-27.158 10.444-22.213 10.444-18.007 10.444-13.961 9.537-10.067 7.728-6.177 5.915-2.818 3.34 0 0" fill="#030404"/>
<path transform="matrix(1,0,0,-1,448.7695,611.70437)" d="M0 0H9.806V-17.923L23.644 0H35.293L17.497-23.203 37.027-51.988H25.521L9.806-28.891V-51.988H0Z" fill="#030404"/>
<path transform="matrix(1,0,0,-1,528.2241,611.70437)" d="M0 0H27.825V-9.686H9.632V-19.085H27.825V-28.591H9.632V-42.27H27.825V-51.988H0Z" fill="#030404"/>
<path transform="matrix(1,0,0,-1,595.5527,611.70437)" d="M0 0H28.171V-9.755H18.885V-51.988H9.041V-9.755H0Z" fill="#030404"/>
<path transform="matrix(1,0,0,-1,747.9473,618.7736)" d="M0 0-7.186-6.468C-9.708-2.886-12.277-1.095-14.894-1.095-16.163-1.095-17.206-1.443-18.016-2.137-18.825-2.833-19.231-3.616-19.231-4.489-19.231-5.36-18.944-6.186-18.361-6.962-17.577-8-15.206-10.225-11.249-13.643-7.544-16.798-5.3-18.79-4.515-19.614-2.549-21.642-1.152-23.578-.329-25.429 .489-27.278 .902-29.297 .902-31.489 .902-35.753-.545-39.275-3.435-42.057-6.325-44.836-10.097-46.227-14.741-46.227-18.374-46.227-21.534-45.319-24.23-43.505-26.927-41.691-29.23-38.839-31.15-34.953L-22.994-29.935C-20.543-34.529-17.721-36.826-14.526-36.826-12.864-36.826-11.464-36.33-10.328-35.342-9.193-34.352-8.628-33.209-8.628-31.913-8.628-30.736-9.055-29.558-9.911-28.38-10.768-27.201-12.653-25.398-15.569-22.971-21.125-18.353-24.711-14.79-26.332-12.281-27.952-9.771-28.762-7.27-28.762-4.771-28.762-1.166-27.412 1.926-24.72 4.506-22.023 7.086-18.699 8.377-14.746 8.377-12.202 8.377-9.776 7.775-7.477 6.573-5.178 5.373-2.684 3.181 0 0" fill="#030404"/>
<path transform="matrix(1,0,0,-1,788.5596,611.70437)" d="M0 0H28.172V-9.755H18.886V-51.988H9.042V-9.755H0Z" fill="#030404"/>
<path transform="matrix(1,0,0,-1,882.8281,620.0812)" d="M0 0C-4.717 0-8.684-1.673-11.898-5.019-15.113-8.364-16.721-12.617-16.721-17.777-16.721-23.526-14.695-28.072-10.649-31.418-7.506-34.034-3.898-35.342 .173-35.342 4.776-35.342 8.695-33.646 11.932-30.251 15.168-26.859 16.787-22.678 16.787-17.706 16.787-12.759 15.159-8.569 11.897-5.142 8.637-1.713 4.67 0 0 0M.105 9.685C7.315 9.685 13.519 7.021 18.707 1.696 23.896-3.629 26.491-10.12 26.491-17.777 26.491-25.363 23.931-31.783 18.809-37.038 13.69-42.292 7.476-44.919 .173-44.919-7.477-44.919-13.835-42.221-18.897-36.825-23.96-31.431-26.492-25.021-26.492-17.6-26.492-12.628-25.311-8.057-22.957-3.889-20.598 .282-17.354 3.588-13.228 6.027-9.101 8.466-4.658 9.685 .105 9.685" fill="#030404"/>
<path transform="matrix(1,0,0,-1,964.3066,632.02566)" d="M0 0H3.043C6.127 0 8.254 .413 9.418 1.24 10.578 2.066 11.16 3.438 11.16 5.354 11.16 6.486 10.873 7.474 10.295 8.313 9.722 9.153 8.949 9.756 7.983 10.121 7.018 10.488 5.241 10.672 2.663 10.672H0ZM-9.699 20.321H.579C6.211 20.321 10.22 19.809 12.607 18.783 14.995 17.758 16.915 16.056 18.371 13.676 19.822 11.297 20.552 8.48 20.552 5.229 20.552 1.813 19.746-1.044 18.143-3.34 16.535-5.637 14.117-7.375 10.886-8.555L22.957-31.667H12.354L.892-9.649H0V-31.667H-9.699Z" fill="#030404"/>
<path transform="matrix(1,0,0,-1,1030.6318,611.70437)" d="M0 0H27.825V-9.686H9.632V-19.085H27.825V-28.591H9.632V-42.27H27.825V-51.988H0Z" fill="#030404"/>
<path transform="matrix(1,0,0,-1,206.7446,538.6564)" d="M0 0 25.517 52.15H63.792V49.993H60.742C57.969 49.993 55.75 49.585 54.086 48.768 52.929 48.223 52.006 47.309 51.312 46.026 50.803 45.093 50.549 42.662 50.549 38.734V-13.417C50.549-17.462 50.803-19.989 51.312-21.001 51.819-22.012 52.86-22.896 54.432-23.655 56.003-24.413 58.107-24.793 60.742-24.793H63.792V-26.95H14.701V-24.793H17.751C20.525-24.793 22.744-24.384 24.408-23.567 25.563-23.023 26.489-22.09 27.182-20.768 27.689-19.834 27.944-17.384 27.944-13.417V45.209L-8.113-26.95H-9.776L-46.388 44.685V-11.025C-46.388-14.914-46.273-17.307-46.041-18.2-45.441-20.146-44.134-21.729-42.125-22.955-40.113-24.18-36.958-24.793-32.659-24.793V-26.95H-64.833V-24.793H-63.861C-61.782-24.831-59.84-24.55-58.038-23.946-56.235-23.344-54.871-22.537-53.947-21.525-53.022-20.515-52.306-19.096-51.796-17.267-51.704-16.84-51.658-14.856-51.658-11.317V38.734C-51.658 42.738-51.913 45.238-52.421 46.229-52.93 47.222-53.97 48.097-55.542 48.855-57.113 49.613-59.215 49.993-61.852 49.993H-64.833V52.15H-26.418Z" fill="#030404"/>
<path transform="matrix(1,0,0,-1,310.8242,490.76383)" d="M0 0V-34.65H3.952C10.377-34.65 15.186-34.155 18.375-33.163 21.564-32.171 24.072-30.384 25.899-27.797 27.724-25.211 28.638-21.837 28.638-17.675 28.638-11.647 26.962-7.195 23.61-4.317 20.258-1.439 14.861 0 7.419 0ZM0-38.792V-60.96C0-65.238 .312-67.931 .936-69.039 1.56-70.147 2.657-71.032 4.229-71.693 5.8-72.354 8.737-72.686 13.036-72.686V-74.843H-35.087V-72.686C-30.742-72.686-27.794-72.345-26.245-71.664-24.697-70.984-23.61-70.1-22.987-69.01-22.362-67.922-22.051-65.238-22.051-60.96V-9.625C-22.051-5.348-22.362-2.654-22.987-1.546-23.61-.437-24.709 .446-26.281 1.108-27.852 1.77-30.787 2.101-35.087 2.101V4.258H8.599C19.97 4.258 28.291 3.597 33.561 2.275 38.83 .952 43.128-1.488 46.458-5.046 49.786-8.604 51.45-12.775 51.45-17.559 51.45-23.392 48.954-28.215 43.962-32.025 40.771-34.438 36.311-36.246 30.579-37.451L53.184-64.226C56.142-67.688 58.246-69.847 59.494-70.701 61.389-71.907 63.585-72.568 66.081-72.686V-74.843H36.473L6.171-38.792Z" fill="#030404"/>
<path transform="matrix(1,0,0,-1,393.4082,547.6398)" d="M0 0C3.235 0 5.975-.954 8.217-2.858 10.459-4.765 11.581-7.059 11.581-9.741 11.581-12.426 10.448-14.71 8.182-16.596 5.917-18.482 3.191-19.426 0-19.426-3.189-19.426-5.906-18.482-8.147-16.596-10.39-14.71-11.511-12.426-11.511-9.741-11.511-7.059-10.39-4.765-8.147-2.858-5.906-.954-3.189 0 0 0" fill="#030404"/>
<path transform="matrix(1,0,0,-1,551.9204,486.506)" d="M0 0V-2.157C-1.757-2.274-3.236-2.683-4.437-3.383-5.641-4.083-6.704-5.153-7.626-6.591-7.904-7.058-9.361-10.072-11.995-15.633L-41.465-80.909H-44.17L-67.469-29.925-93.124-80.909H-95.688L-126.615-16.333C-129.76-9.838-131.955-5.911-133.203-4.55-134.45-3.188-136.554-2.391-139.512-2.157V0H-98.741V-2.157C-102.022-2.236-104.207-2.653-105.292-3.412-106.379-4.17-106.922-5.113-106.922-6.241-106.922-7.72-105.791-10.85-103.525-15.633L-85.08-54.017-70.311-24.033-74.194-15.633C-76.321-11.044-77.962-7.982-79.118-6.445-80.273-4.909-81.604-3.812-83.105-3.149-84.607-2.488-86.814-2.157-89.726-2.157V0H-44.17V-2.157C-47.359-2.197-49.647-2.411-51.034-2.8-52.005-3.072-52.767-3.528-53.323-4.17-53.878-4.812-54.155-5.541-54.155-6.358-54.155-7.253-53.115-9.995-51.034-14.583L-33.908-52.034-18.583-18.141C-16.965-14.642-15.972-12.249-15.603-10.967-15.233-9.683-15.046-8.497-15.046-7.407-15.046-5.814-15.695-4.56-16.989-3.645-18.283-2.732-20.756-2.236-24.408-2.157V0Z" fill="#030404"/>
<path transform="matrix(1,0,0,-1,605.1729,563.4494)" d="M0 0V-2.157H-49.162V0H-46.042C-43.315 0-41.119 .409-39.453 1.226-38.253 1.77-37.329 2.703-36.681 4.025-36.172 4.959-35.918 7.409-35.918 11.376V63.41C-35.918 67.455-36.172 69.982-36.681 70.994-37.19 72.005-38.218 72.89-39.767 73.648-41.315 74.406-43.406 74.786-46.042 74.786H-49.162V76.943H0V74.786H-3.121C-5.848 74.786-8.043 74.378-9.708 73.561-10.91 73.016-11.856 72.082-12.55 70.761-13.06 69.827-13.313 67.377-13.313 63.41V11.376C-13.313 7.331-13.048 4.804-12.516 3.792-11.985 2.781-10.944 1.896-9.395 1.138-7.848 .38-5.755 0-3.121 0Z" fill="#030404"/>
<path transform="matrix(1,0,0,-1,698.0889,537.84)" d="M0 0-3.536-27.767H-87.022V-25.609H-83.901C-81.175-25.609-78.979-25.2-77.314-24.384-76.112-23.84-75.188-22.906-74.541-21.584-74.032-20.65-73.777-18.2-73.777-14.233V37.801C-73.777 41.846-74.032 44.373-74.541 45.385-75.05 46.396-76.078 47.28-77.626 48.039-79.175 48.797-81.267 49.177-83.901 49.177H-87.022V51.334H-36.889V49.177H-40.979C-43.708 49.177-45.903 48.769-47.566 47.951-48.771 47.406-49.717 46.473-50.41 45.151-50.919 44.218-51.172 41.768-51.172 37.801V-12.6C-51.172-16.646-50.895-19.221-50.34-20.329-49.785-21.437-48.7-22.264-47.082-22.809-45.927-23.158-43.13-23.334-38.691-23.334H-30.855C-25.864-23.334-21.704-22.595-18.375-21.117-15.047-19.64-12.169-17.306-9.741-14.116-7.315-10.929-5.017-6.223-2.843 0Z" fill="#030404"/>
<path transform="matrix(1,0,0,-1,792.8066,537.84)" d="M0 0-3.536-27.767H-87.022V-25.609H-83.901C-81.175-25.609-78.978-25.2-77.313-24.384-76.112-23.84-75.188-22.906-74.541-21.584-74.032-20.65-73.777-18.2-73.777-14.233V37.801C-73.777 41.846-74.032 44.373-74.541 45.385-75.049 46.396-76.078 47.28-77.626 48.039-79.175 48.797-81.267 49.177-83.901 49.177H-87.022V51.334H-36.889V49.177H-40.98C-43.708 49.177-45.903 48.769-47.567 47.951-48.771 47.406-49.717 46.473-50.41 45.151-50.919 44.218-51.172 41.768-51.172 37.801V-12.6C-51.172-16.646-50.895-19.221-50.34-20.329-49.785-21.437-48.7-22.264-47.083-22.809-45.927-23.158-43.13-23.334-38.691-23.334H-30.855C-25.864-23.334-21.704-22.595-18.375-21.117-15.047-19.64-12.169-17.306-9.741-14.116-7.315-10.929-5.017-6.223-2.843 0Z" fill="#030404"/>
<path transform="matrix(1,0,0,-1,853.5498,489.13014)" d="M0 0C-8.599 0-15.14-3.695-19.623-11.084-23.276-17.15-25.102-25.862-25.102-37.219-25.102-50.713-22.282-60.688-16.642-67.144-12.714-71.655-7.213-73.91-.139-73.91 4.622-73.91 8.599-72.938 11.787-70.993 15.855-68.505 19.021-64.528 21.286-59.064 23.552-53.601 24.685-46.474 24.685-37.685 24.685-27.224 23.529-19.396 21.218-14.205 18.906-9.013 15.958-5.348 12.377-3.209 8.793-1.07 4.668 0 0 0M-.832 3.733C14.145 4.199 26.314 .524 35.675-7.292 45.035-15.109 49.716-24.891 49.716-36.634 49.716-46.668 46.226-55.497 39.246-63.118 30-73.23 16.942-78.285 .068-78.285-16.851-78.285-29.933-73.464-39.178-63.818-46.482-56.196-50.135-47.154-50.135-36.692-50.135-24.949-45.384-15.158-35.884-7.321-26.384 .515-14.7 4.199-.832 3.733" fill="#030404"/>
<path transform="matrix(1,0,0,-1,1049.0869,486.506)" d="M0 0V-2.157C-1.756-2.274-3.234-2.683-4.437-3.383-5.641-4.083-6.703-5.153-7.626-6.591-7.903-7.058-9.359-10.072-11.995-15.633L-41.464-80.909H-44.169L-67.468-29.925-93.123-80.909H-95.688L-126.614-16.333C-129.759-9.838-131.954-5.911-133.201-4.55-134.449-3.188-136.554-2.391-139.512-2.157V0H-98.74V-2.157C-102.021-2.236-104.206-2.653-105.292-3.412-106.379-4.17-106.921-5.113-106.921-6.241-106.921-7.72-105.789-10.85-103.524-15.633L-85.079-54.017-70.31-24.033-74.193-15.633C-76.319-11.044-77.961-7.982-79.116-6.445-80.272-4.909-81.603-3.812-83.104-3.149-84.606-2.488-86.813-2.157-89.726-2.157V0H-44.169V-2.157C-47.358-2.197-49.647-2.411-51.034-2.8-52.004-3.072-52.767-3.528-53.322-4.17-53.877-4.812-54.154-5.541-54.154-6.358-54.154-7.253-53.113-9.995-51.034-14.583L-33.906-52.034-18.582-18.141C-16.964-14.642-15.972-12.249-15.602-10.967-15.231-9.683-15.045-8.497-15.045-7.407-15.045-5.814-15.694-4.56-16.988-3.645-18.282-2.732-20.756-2.236-24.407-2.157V0Z" fill="#030404"/>
</g>
</g>
</svg>
